<?xml version="1.0" standalone="no"?><!DOCTYPE svg PUBLIC "-//W3C//DTD SVG 1.1//EN" "http://www.w3.org/Graphics/SVG/1.1/DTD/svg11.dtd"><svg t="1743909202735" class="icon" viewBox="0 0 1024 1024" version="1.1" xmlns="http://www.w3.org/2000/svg" p-id="2033" xmlns:xlink="http://www.w3.org/1999/xlink" width="200" height="200"><path d="M806.4 0 243.2 0C166.4 0 108.8 57.6 108.8 134.4l0 19.2C44.8 166.4 0 224 0 294.4c0 44.8 19.2 83.2 51.2 108.8C19.2 428.8 0 467.2 0 512c0 44.8 19.2 83.2 51.2 108.8-32 25.6-51.2 64-51.2 108.8 0 70.4 44.8 121.6 108.8 140.8l0 19.2c0 70.4 57.6 134.4 134.4 134.4l563.2 0c70.4 0 134.4-57.6 134.4-134.4L940.8 134.4C934.4 57.6 876.8 0 806.4 0zM108.8 582.4C83.2 569.6 64 544 64 512c0-32 19.2-57.6 44.8-70.4L108.8 582.4zM108.8 224l0 140.8C83.2 352 64 320 64 294.4S83.2 236.8 108.8 224zM64 729.6c0-32 19.2-57.6 44.8-70.4l0 140.8C83.2 787.2 64 761.6 64 729.6zM870.4 889.6c0 38.4-32 64-64 64L243.2 953.6c-38.4 0-64-32-64-64l0-19.2 0-217.6 0-64L179.2 435.2l0-64L179.2 147.2 179.2 134.4c0-38.4 32-64 64-64l563.2 0c38.4 0 64 32 64 64L870.4 889.6z" p-id="2034"></path><path d="M307.2 230.4l460.8 0 0 64-460.8 0 0-64Z" p-id="2035"></path><path d="M307.2 492.8l460.8 0 0 64-460.8 0 0-64Z" p-id="2036"></path><path d="M307.2 729.6l460.8 0 0 64-460.8 0 0-64Z" p-id="2037"></path></svg>